{
  "accessors": [
    {
      "bufferView": 2,
      "componentType": 5126,
      "count": 248,
      "max": [
        -7.676323890686035,
        -0.8574004173278809,
        -11.489701271057129
      ],
      "min": [
        -7.755587100982666,
        -1.8085564374923706,
        -12.435647010803223
      ],
      "type": "VEC3"
    },
    {
      "bufferView": 2,
      "byteOffset": 2976,
      "componentType": 5126,
      "count": 248,
      "max": [
        1.0,
        1.0,
        0.994522213935852
      ],
      "min": [
        -1.0,
        -1.0,
        -0.994522213935852
      ],
      "type": "VEC3"
    },
    {
      "bufferView": 1,
      "componentType": 5126,
      "count": 248,
      "max": [
        1.0000003576278687,
        1.0
      ],
      "min": [
        0.0,
        0.0
      ],
      "type": "VEC2"
    },
    {
      "bufferView": 0,
      "componentType": 5125,
      "count": 720,
      "type": "SCALAR"
    },
    {
      "bufferView": 2,
      "byteOffset": 5952,
      "componentType": 5126,
      "count": 1479,
      "max": [
        -7.3130106925964355,
        -1.709246039390564,
        -11.926042556762695
      ],
      "min": [
        -8.118900299072266,
        -2.5135459899902344,
        -11.999305725097656
      ],
      "type": "VEC3"
    },
    {
      "bufferView": 2,
      "byteOffset": 23700,
      "componentType": 5126,
      "count": 1479,
      "max": [
        1.0,
        0.9980270266532898,
        0.9999839067459106
      ],
      "min": [
        -1.0,
        -0.998026967048645,
        -0.9999839663505554
      ],
      "type": "VEC3"
    },
    {
      "bufferView": 1,
      "byteOffset": 1984,
      "componentType": 5126,
      "count": 1479,
      "max": [
        0.9999995827674866,
        1.0
      ],
      "min": [
        0.0,
        1.564621925354004e-07
      ],
      "type": "VEC2"
    },
    {
      "bufferView": 0,
      "byteOffset": 2880,
      "componentType": 5125,
      "count": 8400,
      "type": "SCALAR"
    },
    {
      "bufferView": 2,
      "byteOffset": 41448,
      "componentType": 5126,
      "count": 84,
      "max": [
        -7.555589199066162,
        -4.157015800476074,
        -11.80230712890625
      ],
      "min": [
        -7.876322269439697,
        -7.047700881958008,
        -12.123041152954102
      ],
      "type": "VEC3"
    },
    {
      "bufferView": 2,
      "byteOffset": 42456,
      "componentType": 5126,
      "count": 84,
      "max": [
        1.0,
        1.0,
        1.0
      ],
      "min": [
        -1.0,
        -1.0,
        -1.0
      ],
      "type": "VEC3"
    },
    {
      "bufferView": 1,
      "byteOffset": 13816,
      "componentType": 5126,
      "count": 84,
      "max": [
        0.65625,
        1.0
      ],
      "min": [
        0.3437499701976776,
        -7.450580596923828e-08
      ],
      "type": "VEC2"
    },
    {
      "bufferView": 0,
      "byteOffset": 36480,
      "componentType": 5125,
      "count": 240,
      "type": "SCALAR"
    },
    {
      "bufferView": 2,
      "byteOffset": 43464,
      "componentType": 5126,
      "count": 1841,
      "max": [
        -6.656780242919922,
        -2.4959757328033447,
        -10.903498649597168
      ],
      "min": [
        -8.775131225585938,
        -4.421196937561035,
        -13.021849632263184
      ],
      "type": "VEC3"
    },
    {
      "bufferView": 2,
      "byteOffset": 65556,
      "componentType": 5126,
      "count": 1841,
      "max": [
        1.0,
        1.0,
        1.0
      ],
      "min": [
        -1.0,
        -1.0,
        -1.0
      ],
      "type": "VEC3"
    },
    {
      "bufferView": 1,
      "byteOffset": 14488,
      "componentType": 5126,
      "count": 1841,
      "max": [
        1.0000001192092896,
        1.0
      ],
      "min": [
        0.0,
        0.0
      ],
      "type": "VEC2"
    },
    {
      "bufferView": 0,
      "byteOffset": 37440,
      "componentType": 5125,
      "count": 10320,
      "type": "SCALAR"
    },
    {
      "bufferView": 3,
      "componentType": 5126,
      "count": 3,
      "max": [
        1.0,
        0.0,
        0.0,
        0.0,
        0.0,
        1.0,
        0.0,
        0.0,
        0.0,
        0.0,
        1.0,
        0.0,
        0.0,
        0.0,
        0.0,
        1.0
      ],
      "min": [
        1.0,
        0.0,
        0.0,
        0.0,
        0.0,
        1.0,
        0.0,
        0.0,
        0.0,
        0.0,
        1.0,
        0.0,
        0.0,
        0.0,
        0.0,
        1.0
      ],
      "type": "MAT4"
    }
  ],
  "asset": {
    "extras": {
      "author": "Marina_Fom (https://sketchfab.com/Marina_Fom)",
      "license": "CC-BY-NC-4.0 (http://creativecommons.org/licenses/by-nc/4.0/)",
      "source": "https://sketchfab.com/3d-models/earring-3062983a545748079cbdf5a29f2b307b",
      "title": "Earring"
    },
    "generator": "Sketchfab-12.68.0",
    "version": "2.0"
  },
  "bufferViews": [
    {
      "buffer": 0,
      "byteLength": 78720,
      "name": "floatBufferViews",
      "target": 34963
    },
    {
      "buffer": 0,
      "byteLength": 29216,
      "byteOffset": 78720,
      "byteStride": 8,
      "name": "floatBufferViews",
      "target": 34962
    },
    {
      "buffer": 0,
      "byteLength": 87648,
      "byteOffset": 107936,
      "byteStride": 12,
      "name": "floatBufferViews",
      "target": 34962
    },
    {
      "buffer": 0,
      "byteLength": 192,
      "byteOffset": 195584,
      "name": "floatBufferViews"
    }
  ],
  "buffers": [
    {
      "byteLength": 195776,
      "uri": "scene.bin"
    }
  ],
  "extensionsRequired": [
    "KHR_materials_pbrSpecularGlossiness"
  ],
  "extensionsUsed": [
    "KHR_materials_pbrSpecularGlossiness"
  ],
  "materials": [
    {
      "doubleSided": true,
      "extensions": {
        "KHR_materials_pbrSpecularGlossiness": {
          "diffuseFactor": [
            0.6220240783106952,
            0.6220240783106952,
            0.0,
            1.0
          ],
          "glossinessFactor": 1.0,
          "specularFactor": [
            0.27547527876789646,
            0.27547527876789646,
            0.27547527876789646
          ]
        }
      },
      "name": "lambert13"
    },
    {
      "doubleSided": true,
      "extensions": {
        "KHR_materials_pbrSpecularGlossiness": {
          "diffuseFactor": [
            1.0,
            1.0,
            1.0,
            1.0
          ],
          "glossinessFactor": 0.6098644713091935,
          "specularFactor": [
            0.17211861925513192,
            0.17211861925513192,
            0.17211861925513192
          ]
        }
      },
      "name": "lambert10"
    },
    {
      "doubleSided": true,
      "extensions": {
        "KHR_materials_pbrSpecularGlossiness": {
          "diffuseFactor": [
            0.0,
            0.36059252777840844,
            0.027289900057772182,
            1.0
          ],
          "glossinessFactor": 1.0,
          "specularFactor": [
            0.5551462398024358,
            0.5551462398024358,
            0.5551462398024358
          ]
        }
      },
      "name": "lambert12"
    }
  ],
  "meshes": [
    {
      "name": "polySurface5_lambert13_0",
      "primitives": [
        {
          "attributes": {
            "NORMAL": 1,
            "POSITION": 0,
            "TEXCOORD_0": 2
          },
          "indices": 3,
          "material": 0,
          "mode": 4
        }
      ]
    },
    {
      "name": "polySurface7_lambert13_0",
      "primitives": [
        {
          "attributes": {
            "NORMAL": 5,
            "POSITION": 4,
            "TEXCOORD_0": 6
          },
          "indices": 7,
          "material": 0,
          "mode": 4
        }
      ]
    },
    {
      "name": "polySurface9_lambert10_0",
      "primitives": [
        {
          "attributes": {
            "NORMAL": 9,
            "POSITION": 8,
            "TEXCOORD_0": 10
          },
          "indices": 11,
          "material": 1,
          "mode": 4
        }
      ]
    },
    {
      "name": "polySurface9_lambert12_0",
      "primitives": [
        {
          "attributes": {
            "NORMAL": 13,
            "POSITION": 12,
            "TEXCOORD_0": 14
          },
          "indices": 15,
          "material": 2,
          "mode": 4
        }
      ]
    }
  ],
  "nodes": [
    {
      "children": [
        1
      ],
      "matrix": [
        1.0,
        0.0,
        0.0,
        0.0,
        0.0,
        2.220446049250313e-16,
        -1.0,
        0.0,
        0.0,
        1.0,
        2.220446049250313e-16,
        0.0,
        0.0,
        0.0,
        0.0,
        1.0
      ],
      "name": "Sketchfab_model"
    },
    {
      "children": [
        2
      ],
      "matrix": [
        0.009999999776482582,
        0.0,
        0.0,
        0.0,
        0.0,
        0.0,
        0.009999999776482582,
        0.0,
        0.0,
        -0.009999999776482582,
        0.0,
        0.0,
        0.0,
        0.0,
        0.0,
        1.0
      ],
      "name": "leftE.fbx"
    },
    {
      "children": [
        3
      ],
      "name": "RootNode"
    },
    {
      "children": [
        4,
        7,
        9,
        11
      ],
      "name": "Object_3"
    },
    {
      "children": [
        5,
        6
      ],
      "name": "_rootJoint"
    },
    {
      "name": "joint2_00",
      "translation": [
        -7.726102352142334,
        -1.7233150005340576,
        -11.971954345703125
      ]
    },
    {
      "name": "joint4_01",
      "translation": [
        -7.70799446105957,
        -2.5050697326660156,
        -11.959113121032715
      ]
    },
    {
      "children": [
        8
      ],
      "name": "polySurface5"
    },
    {
      "mesh": 0,
      "name": "polySurface5_lambert13_0"
    },
    {
      "children": [
        10
      ],
      "name": "polySurface7"
    },
    {
      "mesh": 1,
      "name": "polySurface7_lambert13_0"
    },
    {
      "children": [
        12,
        13
      ],
      "name": "polySurface9"
    },
    {
      "mesh": 2,
      "name": "polySurface9_lambert10_0"
    },
    {
      "mesh": 3,
      "name": "polySurface9_lambert12_0"
    }
  ],
  "scene": 0,
  "scenes": [
    {
      "name": "Sketchfab_Scene",
      "nodes": [
        0
      ]
    }
  ],
  "skins": [
    {
      "inverseBindMatrices": 16,
      "joints": [
        4,
        5,
        6
      ],
      "skeleton": 4
    }
  ]
}
