{
  "accessors": [
    {
      "bufferView": 0,
      "componentType": 5125,
      "count": 3132,
      "type": "SCALAR"
    },
    {
      "bufferView": 1,
      "componentType": 5126,
      "count": 770,
      "max": [
        1.74999988079071,
        1.57126998901367,
        0.408840924501419
      ],
      "min": [
        0.25,
        0.0,
        0.249999970197678
      ],
      "type": "VEC3"
    },
    {
      "bufferView": 2,
      "componentType": 5126,
      "count": 770,
      "type": "VEC3"
    },
    {
      "bufferView": 3,
      "componentType": 5126,
      "count": 770,
      "type": "VEC2"
    }
  ],
  "asset": {
    "generator": "Adobe Substance 3D Painter 7.2.3",
    "version": "2.0"
  },
  "bufferViews": [
    {
      "buffer": 0,
      "byteLength": 12528,
      "target": 34963
    },
    {
      "buffer": 0,
      "byteLength": 9240,
      "byteOffset": 12528,
      "target": 34962
    },
    {
      "buffer": 0,
      "byteLength": 9240,
      "byteOffset": 21768,
      "target": 34962
    },
    {
      "buffer": 0,
      "byteLength": 6160,
      "byteOffset": 31008,
      "target": 34962
    }
  ],
  "buffers": [
    {
      "byteLength": 37168,
      "uri": "Untitled.bin"
    }
  ],
  "images": [
    {
      "uri": "doorway_baseColor.png"
    },
    {
      "uri": "doorway_occlusionRoughnessMetallic.png"
    },
    {
      "uri": "doorway_normal.png"
    }
  ],
  "materials": [
    {
      "alphaMode": "OPAQUE",
      "name": "doorway",
      "normalTexture": {
        "index": 2
      },
      "occlusionTexture": {
        "index": 1
      },
      "pbrMetallicRoughness": {
        "baseColorTexture": {
          "index": 0
        },
        "metallicRoughnessTexture": {
          "index": 1
        }
      }
    }
  ],
  "meshes": [
    {
      "name": "pCube4",
      "primitives": [
        {
          "attributes": {
            "NORMAL": 2,
            "POSITION": 1,
            "TEXCOORD_0": 3
          },
          "indices": 0,
          "material": 0,
          "mode": 4
        }
      ]
    }
  ],
  "nodes": [
    {
      "children": [
        1
      ],
      "name": "RootNode"
    },
    {
      "children": [
        2
      ],
      "name": "pCube4"
    },
    {
      "mesh": 0,
      "name": "pCube4"
    }
  ],
  "samplers": [
    {
      "magFilter": 9729,
      "minFilter": 9985,
      "wrapS": 10497,
      "wrapT": 10497
    }
  ],
  "scene": 0,
  "scenes": [
    {
      "name": "Scene",
      "nodes": [
        0
      ]
    }
  ],
  "textures": [
    {
      "sampler": 0,
      "source": 0
    },
    {
      "sampler": 0,
      "source": 1
    },
    {
      "sampler": 0,
      "source": 2
    }
  ]
}